<?xml version="1.0" encoding="utf-8"?>
<!-- Generator: Adobe Illustrator 27.7.0, SVG Export Plug-In . SVG Version: 6.00 Build 0)  -->
<svg version="1.1" id="Layer_1" xmlns="http://www.w3.org/2000/svg" xmlns:xlink="http://www.w3.org/1999/xlink" x="0px" y="0px"
	 viewBox="0 0 238 76" style="enable-background:new 0 0 238 76;" xml:space="preserve">
<style type="text/css">
	.st0{fill:#0AA0D2;}
	.st1{fill:#0A3255;}
	.st2{fill:#B4E114;}
</style>
<g>
	<g>
		<g>
			<polygon points="119.62,34.76 98.13,34.76 98.13,29.31 119.62,29.31 119.62,23.24 98.13,23.24 98.13,18.37 119.62,18.37 
				119.62,12.33 90.51,12.33 90.51,40.79 119.62,40.79 			"/>
			<polygon points="212.16,23.58 230.21,40.79 235.95,40.79 235.95,12.33 228.33,12.33 228.33,29.55 210.29,12.33 204.54,12.33 
				204.54,40.79 212.16,40.79 			"/>
			<path d="M196.34,12.33h-31.4v28.46h31.4V12.33z M188.73,34.77h-16.18v-16.4h16.18V34.77z"/>
			<polygon points="58.52,23.58 76.56,40.79 82.3,40.79 82.3,12.33 74.7,12.33 74.7,29.55 56.65,12.33 50.9,12.33 50.9,40.79 
				58.52,40.79 			"/>
			<polygon points="142.29,32 150.1,40.79 159.72,40.79 147.11,26.58 159.74,12.33 150.11,12.33 142.29,21.15 134.48,12.33 
				124.85,12.33 137.48,26.58 124.87,40.79 134.5,40.79 			"/>
		</g>
	</g>
	<g>
		<g>
			<polygon class="st0" points="2.05,40.92 2.05,64.85 33.82,47.96 			"/>
			<polygon class="st1" points="33.82,2.42 2.05,19.31 2.05,40.92 33.82,47.96 			"/>
			<polygon class="st2" points="33.82,47.96 2.05,64.85 41.46,73.58 73.22,56.69 			"/>
		</g>
	</g>
</g>
</svg>
